<?xml version="1.0" encoding="utf-8"?>
<!-- Generator: Adobe Illustrator 21.0.2, SVG Export Plug-In . SVG Version: 6.00 Build 0)  -->
<svg version="1.1" id="Слой_1" xmlns="http://www.w3.org/2000/svg" xmlns:xlink="http://www.w3.org/1999/xlink" x="0px" y="0px"
	 viewBox="0 0 315.8 73" style="enable-background:new 0 0 315.8 73;" xml:space="preserve">
<style type="text/css">
	.st0{fill:#67B0D2;}
</style>
<path class="st0" d="M307.5,73H8.4C3.7,73,0,69.3,0,64.6V8.4C0,3.7,3.7,0,8.4,0h299.1c4.6,0,8.4,3.7,8.4,8.4v56.3
	C315.8,69.3,312.1,73,307.5,73z"/>
<g>
	<path d="M85.7,34.7l6.2-16.1h7.6L87.6,46.7l-1,1.9c-1.8,3.1-4.5,4.6-8.1,4.6L76,53.1L76,47.4c0.4,0.1,1,0.1,1.8,0.1
		c1,0,1.8-0.2,2.4-0.5s1.1-1,1.5-1.9l0.9-2.2l-12-24.3h7.6L85.7,34.7z"/>
	<path d="M122.9,52.7h-6.8V32.8h-8.5v19.9h-6.8V27.3h22.1V52.7z"/>
	<path d="M150.9,40.3c0,3.9-0.9,7-2.7,9.4s-4.2,3.5-7.2,3.5c-2.6,0-4.6-0.9-6.2-2.7v12h-6.8V27.3h6.3l0.2,2.5c1.6-2,3.8-3,6.4-3
		c3.1,0,5.6,1.2,7.3,3.5s2.6,5.5,2.6,9.6V40.3z M144.1,39.8c0-2.4-0.4-4.2-1.3-5.5s-2.1-1.9-3.6-1.9c-2.1,0-3.6,0.8-4.4,2.4v10.4
		c0.8,1.7,2.3,2.5,4.4,2.5C142.5,47.7,144.1,45.1,144.1,39.8z"/>
	<path d="M169.8,52.7c-0.3-0.6-0.5-1.4-0.7-2.3c-1.6,1.8-3.8,2.7-6.4,2.7c-2.5,0-4.5-0.7-6.2-2.2s-2.4-3.3-2.4-5.4
		c0-2.7,1-4.8,3-6.2s4.9-2.2,8.6-2.2h3.1v-1.5c0-1.2-0.3-2.1-0.9-2.8s-1.6-1.1-2.8-1.1c-1.1,0-2,0.3-2.7,0.8s-1,1.3-1,2.3h-6.8
		c0-1.5,0.5-2.8,1.4-4.1s2.2-2.2,3.8-2.9s3.5-1.1,5.6-1.1c3.1,0,5.6,0.8,7.4,2.4s2.8,3.8,2.8,6.6v11c0,2.4,0.4,4.2,1,5.5v0.4H169.8z
		 M164.2,48c1,0,1.9-0.2,2.8-0.7s1.5-1,1.9-1.8v-4.4h-2.5c-3.4,0-5.2,1.2-5.4,3.5l0,0.4c0,0.8,0.3,1.5,0.9,2.1S163.2,48,164.2,48z"
		/>
	<path d="M181.3,52.7V27.3h10.6c3.5,0,6.1,0.6,7.9,1.8s2.8,3,2.8,5.3c0,1.2-0.4,2.2-1.2,3.2s-1.9,1.6-3.4,2.1c1.8,0.3,3.2,1,4.3,2
		s1.6,2.2,1.6,3.7c0,2.4-0.9,4.2-2.7,5.4s-4.3,1.9-7.7,1.9H181.3z M188.1,37.6h4.2c2.4,0,3.6-0.8,3.6-2.3c0-0.9-0.3-1.6-1-2
		c-0.6-0.4-1.6-0.6-3-0.6h-3.8V37.6z M188.1,42.2v5.1h5.5c2.4,0,3.6-0.8,3.6-2.5c0-1.7-1.1-2.6-3.4-2.6H188.1z"/>
	<path d="M230.1,27.3v25.4h-6.8V32.8h-6l-0.4,7.8c-0.3,4.2-1.1,7.2-2.5,9.1s-3.4,2.9-6.1,2.9H206l-0.1-5.5l0.8-0.1
		c1.2-0.1,2.1-0.8,2.7-2.2s0.9-3.6,1.1-6.9l0.5-10.8H230.1z"/>
	<path d="M256.4,27.3v25.4h-6.8v-8.8h-4.3l-4.9,8.8h-6.9l5.5-9.9c-1.5-0.7-2.7-1.7-3.5-2.9s-1.2-2.6-1.2-4.1c0-2.5,0.9-4.5,2.8-6
		s4.4-2.4,7.6-2.4H256.4z M245,39.2h4.6v-6.4h-4.4c-1.2,0-2.2,0.3-2.9,0.9c-0.8,0.6-1.1,1.4-1.1,2.3s0.4,1.7,1.1,2.2
		C243,38.9,243.9,39.2,245,39.2z"/>
	<path d="M277.4,27.3h6.8v25.4h-6.8V37l-8.5,15.7h-6.8V27.3h6.8V43L277.4,27.3z M281.4,17.1c0,2.1-0.7,3.7-2.2,5
		c-1.5,1.3-3.4,1.9-5.9,1.9s-4.4-0.6-5.9-1.9c-1.5-1.3-2.2-2.9-2.2-5h4.8c0,1,0.3,1.7,0.9,2.3s1.4,0.8,2.4,0.8c1,0,1.8-0.3,2.4-0.8
		s0.9-1.3,0.9-2.3H281.4z"/>
	<path d="M293.4,45.9c1.1,0,2.1,0.3,2.8,1s1,1.5,1,2.6c0,1-0.3,1.9-1,2.6s-1.6,1-2.8,1c-1.1,0-2-0.3-2.7-1s-1-1.5-1-2.6
		s0.3-1.9,1-2.6S292.3,45.9,293.4,45.9z M296.2,42.2h-5.6l-0.8-23.6h7.2L296.2,42.2z"/>
</g>
<g>
	<path d="M18.2,57.6V15.8l0.3,0c0.1,0,0.3,0,0.4-0.1l0.4-0.2v0.2c0,0,0.1,0,0.1,0l0.9-0.1c0.5-0.1,0.9-0.1,1.4-0.2
		c0.7-0.1,1.5-0.2,2.3-0.2c0.8,0,1.5,0.1,2.2,0.3c0.3,0.1,0.5,0.2,0.7,0.4c0.1,0.1,0.2,0.1,0.3,0.2l0.3,0.1l-0.1,0.3
		c-0.1,0.2-0.3,0.4-0.4,0.7c-0.2,0.4-0.4,0.8-0.6,1.2c-0.4,1-0.1,2,0.8,2.6c0.6,0.4,1.2,0.6,1.9,0.6c0.2,0,0.5,0,0.7-0.1
		c0.7-0.1,1.3-0.4,1.6-0.9c0.3-0.4,0.4-1,0.3-1.6c-0.1-0.8-0.5-1.5-0.9-2.3l-0.1-0.2c-0.3-0.5-0.3-1-0.1-1.3
		c0.2-0.3,0.5-0.4,1.1-0.5l0.3,0c0.7,0,1.3,0.1,1.8,0.2c1.6,0.3,3.1,0.6,4.7,1l2.3,0.5c0.2,0,0.4,0.1,0.5,0.1l0,0l0.1,0
		c0.2,0,0.3,0.1,0.4,0.1c0,0,0.2,0,0.2,0c0.1,0,0.2,0,0.2,0l0.3,0c0.3,0,0.5,0.1,0.8,0.1l1,0.1c1.1,0.1,2.2,0.3,3.4,0.4
		c0.1,0,0.2,0,0.3,0c0.4,0,0.9-0.1,1.3-0.3c-0.1-0.1-0.1-0.2-0.2-0.3c-0.2-0.4-0.5-0.8-0.6-1.3c-0.3-0.8-0.3-1.5,0-2.1
		c0.3-0.6,0.9-1.1,1.6-1.3c0.6-0.2,1.3-0.3,1.9-0.3c1.1,0,2.2,0.3,3.3,1c1.2,0.8,1.6,2.1,1,3.5c-0.2,0.4-0.4,0.8-0.7,1.1
		c-0.1,0.1-0.2,0.2-0.2,0.4c0,0.1-0.1,0.1-0.1,0.2c0,0,0.8-0.1,0.8-0.1c0.7-0.1,1.4-0.1,2-0.3c1.8-0.4,3.6-0.7,5.4-0.7
		c0.2,0,0.3,0,0.5,0c0.2,0.1,0.3,0.1,0.4,0.1c0.1,0,0.1,0,0.2,0l0.1,0l0.1,0c0.1,0,0.2,0,0.3,0l0.2,0l0.3,0.1l-0.1,0.3
		c0,0.1-0.1,0.2-0.1,0.4l0,0.3l-0.3,0l-0.1,0.4c-0.1,0.5-0.2,0.9-0.2,1.4c-0.1,0.4-0.2,0.7-0.2,1.1c-0.2,1-0.4,2-0.4,3
		c0,0.7,0.1,1.3,0.3,1.8c0.1-0.1,0.2-0.1,0.3-0.2c0.4-0.3,0.7-0.5,1.1-0.7c0.5-0.2,1-0.4,1.4-0.4c0.9,0,1.8,0.5,2.3,1.5
		c0.8,1.4,1,2.9,0.6,4.5c-0.4,1.6-1.3,2.5-2.6,2.5l0,0c-0.6,0-1.2-0.2-1.8-0.5c-0.3-0.2-0.6-0.3-0.9-0.5l-0.1-0.1
		c-0.2,0.7-0.4,1.4-0.3,2.1c0.1,0.6,0.2,1.2,0.4,1.8c0.1,0.3,0.1,0.6,0.2,0.9c0,0.3,0.1,0.5,0.1,0.6l0.1,0.2c0,0.1,0,0.2,0.1,0.3
		c0,0.1,0,0.1,0.1,0.2l0.8,5.3c0.2,1.6,0.1,3-0.3,4.3l-0.1,0.4L65,46.8c-0.1-0.1-0.2-0.1-0.3-0.2c-0.2-0.1-0.3-0.2-0.5-0.3
		c-0.4-0.2-0.8-0.5-1.2-0.6c-0.4-0.1-0.7-0.2-1-0.2c-0.7,0-1.3,0.4-1.7,1.1c-0.7,1.4-0.7,2.7,0,4.1c0.3,0.5,0.7,0.8,1.3,0.8
		c0.2,0,0.4,0,0.6-0.1c0.5-0.2,1-0.4,1.4-0.8c0.2-0.2,0.5-0.3,0.7-0.3c0.3,0,0.5,0.1,0.7,0.3c0.1,0.1,0.6,0.6,0.6,1.1
		c0,0.9-0.1,1.9-0.2,2.9c-0.1,0.5-0.2,1-0.3,1.5L65,56.8l0,0c-0.1,0.2-0.2,0.3-0.2,0.5l0,0.3H18.2z M63.7,56.6l0.1,0.3v-0.3
		c0.2,0,0.2,0,0.2-0.1c0.1-0.4,0.2-0.8,0.3-1.2c0.2-0.7,0.3-1.3,0.4-2c0.1-0.5,0.1-1-0.1-1.6c0,0-0.1-0.3-0.1-0.3c0,0-0.1,0-0.3,0.1
		c-0.4,0.3-0.8,0.5-1.2,0.7c-0.4,0.2-0.8,0.2-1.2,0.2c-1.1,0-1.9-0.6-2.4-1.7c-0.6-1.4-0.7-2.9,0-4.3c0.6-1.3,1.5-2,2.8-2
		c0.3,0,0.5,0,0.8,0.1c0.5,0.1,0.9,0.3,1.4,0.5c0.2,0.1,0.4,0.2,0.5,0.2c0,0,0.1,0,0.1,0.1c0-0.2,0.1-0.4,0.1-0.6l0-0.2
		c0-0.9-0.1-1.9-0.2-2.8c-0.1-0.9-0.2-1.8-0.4-2.7c-0.1-0.5-0.2-1.1-0.2-1.6c0-0.1,0-0.1,0-0.1c0,0,0,0-0.2,0l-0.1,0
		c-0.9-0.1-1.8-0.2-2.7-0.4c-0.6-0.1-1.2-0.3-1.8-0.5c-0.6-0.2-1.2-0.3-1.8-0.5c-0.4-0.1-0.7-0.1-1-0.1c-0.6,0-1,0.1-1.5,0.4
		c0.1,0.1,0.1,0.3,0.2,0.4c0.2,0.5,0.5,0.9,0.6,1.4c0.4,1,0.4,2,0,2.9c-0.4,0.8-1.2,1.5-2.2,1.8C53,42.9,52.4,43,51.8,43
		c-0.7,0-1.4-0.1-2.1-0.4c-0.9-0.4-1.6-1-1.9-1.8c-0.3-0.8-0.3-1.7,0.1-2.6c0.2-0.4,0.4-0.8,0.6-1.2c0.1-0.1,0.1-0.3,0.2-0.4l-0.3,0
		c-0.2,0-0.3,0-0.5,0c-0.2,0-0.5,0-0.7,0c-0.7,0-1.3,0.1-2,0.3c-0.8,0.3-1.7,0.4-2.6,0.4c-0.2,0-0.5,0-0.7,0l-0.1,0l-0.6,7.7
		c0,0,0,0,0.1,0c0.3-0.2,0.7-0.4,1-0.5c0.5-0.2,1.1-0.4,1.6-0.4c1.4,0,2.6,0.9,3.1,2.5c0.1,0.4,0.2,0.8,0.3,1.2
		c0.1,1.3-0.2,2.6-1,3.4c-0.6,0.7-1.5,1-2.5,1c-0.5,0-1-0.1-1.6-0.3c-0.3-0.1-0.5-0.2-0.8-0.3l-0.1,0c-0.4,0.8-0.4,1.6-0.1,2.6
		l0.2,0.5c0.2,0.5,0.3,1,0.4,1.5c0.1,0.2,0.1,0.2,0.3,0.2c1.8,0,3.6,0,5.3,0l9.1,0L63.7,56.6z M19.2,41.2c0,5,0,10.1,0,15.1
		c0,0.2,0,0.2,0,0.2c0,0,0,0,0.2,0c5.7,0,11.4,0,17.1,0l4.3,0c0-0.1,0-0.1,0-0.1c-0.2-0.6-0.3-1.1-0.5-1.7c-0.5-1.4-0.3-2.8,0.5-4.2
		l0.1-0.2c0,0,0.6,0.2,0.8,0.3c0.4,0.2,0.7,0.3,1.1,0.4c0.4,0.1,0.7,0.2,1.1,0.2c1.5,0,2.4-1.1,2.5-2.8c0-0.4,0-0.8-0.1-1.2
		c-0.2-1-1-2-2.1-2c-0.2,0-0.4,0-0.6,0.1c-0.5,0.1-0.9,0.4-1.4,0.6c-0.2,0.1-0.5,0.3-0.7,0.4c-0.2,0.1-0.4,0.2-0.6,0.2h-0.1
		l-0.1-0.1c-0.3-0.2-0.4-0.6-0.4-0.8c0-0.7,0.1-1.3,0.1-2l0.1-1.6c0.1-1.5,0.2-3.1,0.3-4.6c0-0.1,0-0.2,0-0.2c0,0,0,0-0.2-0.1
		c-0.5-0.1-1-0.2-1.5-0.3c-0.5-0.1-0.9-0.2-1.4-0.2c-1.8-0.3-3.5-0.5-5.3-0.7c0,0,0,0,0,0c-0.3,0-0.5,0.1-0.7,0.2c0,0-0.1,0-0.1,0
		c0,0,0,0.1,0.1,0.1c0.7,0.7,1.1,1.6,1.3,2.5c0.3,1.1,0,2.1-0.9,2.8c-0.9,0.7-1.9,1.1-3,1.1c-0.8,0-1.5-0.2-2.3-0.5
		c-1.3-0.6-1.9-1.9-1.6-3.4c0.1-0.4,0.3-0.8,0.4-1.1c0.1-0.2,0.1-0.3,0.2-0.5l0-0.1c-0.7-0.2-1.4-0.3-2.2-0.3
		c-1.1,0-2.2,0.2-3.3,0.4c-0.4,0.1-0.7,0.1-1.1,0.2L19.2,41.2z M49.7,35.6c0.2,0,0.5,0.1,0.6,0.4c0.1,0.3-0.1,0.7-0.1,0.7
		c-0.2,0.2-0.3,0.5-0.5,0.7c-0.3,0.4-0.5,0.8-0.8,1.2c-0.3,0.5-0.4,1.1-0.2,1.6c0.2,0.5,0.6,1,1.1,1.3c0.6,0.3,1.2,0.5,1.9,0.5
		c0.3,0,0.7,0,1-0.1c0.9-0.2,1.5-0.5,1.9-1.1c0.5-0.8,0.5-1.6,0-2.7c-0.2-0.4-0.4-0.8-0.7-1.3c-0.1-0.2-0.2-0.4-0.3-0.6L53.6,36
		l0.2-0.2c0.1-0.1,0.1-0.1,0.2-0.2c0.8-0.5,1.6-0.8,2.6-0.8c0.5,0,1,0.1,1.6,0.2c0.7,0.2,1.5,0.4,2.2,0.6c0.7,0.2,1.4,0.4,2.2,0.5
		c0.4,0.1,0.7,0.1,1.2,0.1c0.1,0,0.1,0,0.2,0c-0.7-2.1-1.2-4.3,0.1-6.6l0.2-0.3l0.4,0.3c0.1,0.1,0.2,0.2,0.3,0.2
		c0.2,0.1,0.3,0.2,0.5,0.3c0.4,0.3,0.8,0.5,1.3,0.7c0.3,0.1,0.5,0.2,0.8,0.2c0.6,0,1-0.3,1.3-1c0.6-1.2,0.6-2.6-0.1-4
		c-0.3-0.6-0.8-1.4-1.6-1.4c-0.4,0-0.9,0.2-1.4,0.5c-0.3,0.2-0.6,0.5-0.9,0.8l-0.2,0.2c0,0-0.1,0.1-0.1,0.1c0,0.1-0.1,0.1-0.1,0.2
		L64.1,27l-0.3-0.4c-0.6-0.9-1-1.8-1-2.8c-0.1-1.2,0.1-2.4,0.4-3.6l0.1-0.7c0.1-0.6,0.2-1.2,0.3-1.8l0.1-0.5l-0.2,0
		c-0.2,0-0.3,0-0.5,0c-1.4,0-2.7,0.3-4.1,0.5L58.2,18c-1.1,0.2-2.2,0.3-3.2,0.3c0,0-0.3,0-0.4,0c-0.4,0-0.8-0.3-0.9-0.5
		c-0.1-0.2,0-0.5,0.3-0.9c0.1-0.2,0.3-0.4,0.5-0.6c0.2-0.3,0.5-0.6,0.6-0.9c0.5-0.9,0.2-1.8-0.7-2.4c-0.8-0.5-1.6-0.7-2.6-0.7
		c-0.3,0-0.6,0-0.8,0.1c-0.8,0.1-1.4,0.4-1.6,0.9c-0.2,0.5-0.2,1.1,0.2,1.9l-0.2,0.3l0.2-0.2l1.1,1.6L50.4,17
		c-0.5,0.4-1.3,0.8-2.3,0.8l-0.1,0c-1.3,0-2.5-0.2-3.7-0.3l-0.4,0c-0.5-0.1-1-0.1-1.6-0.2l-0.5-0.1L41.7,18
		c-0.2,0.8-0.3,1.6-0.5,2.4c-0.1,0.7,0,1.4,0.3,2l0.2-0.1c0.3-0.2,0.6-0.3,0.8-0.4c0.5-0.2,0.9-0.3,1.4-0.3c1.2,0,2.2,0.6,2.7,1.8
		c0.7,1.3,0.8,2.7,0.4,4.1c-0.4,1.3-1.4,2.1-2.6,2.1c-0.3,0-0.6-0.1-1-0.2c-0.5-0.2-1-0.4-1.4-0.7l-0.3-0.2
		c-0.2-0.1-0.4-0.3-0.6-0.4c0,0.1-0.1,0.2-0.1,0.2c-0.2,0.7-0.2,1.5,0,2.3c0.3,1.3,0.5,2.7,0.7,4c0.1,0.4,0.1,0.8,0.1,1.2
		c0,0.1,0,0.2,0,0.3c0.4,0,0.8,0.1,1.1,0.1c0.5,0,1-0.1,1.4-0.2c0.1,0,0.2-0.1,0.4-0.1c0.2-0.1,0.4-0.2,0.7-0.2
		C46.9,35.7,48.2,35.7,49.7,35.6L49.7,35.6z M23.7,35.7c1.2,0,2.3,0.2,3.3,0.7l0.2,0.1l-0.1,0.2c-0.1,0.3-0.2,0.5-0.3,0.8
		c-0.2,0.6-0.5,1.1-0.6,1.6c-0.2,0.8,0.1,1.5,0.9,2c0.6,0.3,1.3,0.5,1.9,0.5c0.6,0,1.3-0.2,1.9-0.5c0.5-0.2,0.9-0.6,1-1.1
		c0.2-0.5,0.1-1.1-0.2-1.6c-0.3-0.6-0.7-1.1-1-1.5c-0.3-0.4-0.4-0.7-0.3-1c0.1-0.3,0.3-0.5,0.7-0.7c0.5-0.2,1-0.3,1.5-0.3
		c0.3,0,0.6,0,0.9,0.1c1.4,0.2,2.8,0.4,4.1,0.7l1.8,0.3c0.3,0.1,1.2,0.2,1.2,0.2c0,0,0-0.1,0-0.1c0-0.3,0-0.5-0.1-0.8
		c-0.2-1.3-0.5-2.6-0.7-3.9L40,31.1c-0.3-1.6-0.1-3,0.6-4.3l0.2-0.3l0.8,0.6c0.8,0.6,1.4,1.1,2.2,1.3c0.2,0.1,0.5,0.1,0.7,0.1
		c0.7,0,1.3-0.4,1.6-1.2c0.3-0.9,0.3-1.8,0-2.8c-0.1-0.3-0.3-0.7-0.5-1c-0.4-0.5-0.9-0.8-1.5-0.8c-0.3,0-0.6,0.1-0.9,0.2
		c-0.4,0.2-0.7,0.4-1.1,0.6c-0.2,0.1-0.3,0.2-0.5,0.3l-0.2,0.1l-0.1-0.2c-0.9-1.1-1.1-2.5-0.8-4.1c0.1-0.6,0.3-1.2,0.4-1.9l0.1-0.6
		L40.1,17c-0.7-0.2-1.4-0.3-2.1-0.4c-1.9-0.4-3.9-0.7-5.9-1.1c-0.1,0-0.2,0-0.3,0c-0.2,0-0.3,0-0.5,0c0,0,0,0-0.1,0
		c0,0.1,0.1,0.1,0.1,0.2c0.1,0.3,0.2,0.5,0.3,0.7c0.3,0.6,0.5,1.2,0.7,1.8c0.5,1.9-0.4,3.5-2.3,3.9c-0.4,0.1-0.9,0.2-1.3,0.2
		c-0.3,0-0.6,0-0.9-0.1c-1.3-0.2-2.3-0.9-2.7-1.8c-0.5-1-0.4-2.2,0.3-3.4c0.1-0.2,0.2-0.4,0.3-0.6c-0.7-0.2-1.3-0.3-2.1-0.3
		c-1.1,0-2.3,0.2-3.4,0.4c-0.3,0.1-0.7,0.1-1,0.2v19.6l0.5-0.1C21.1,35.9,22.4,35.7,23.7,35.7z"/>
	<path d="M69.1,25.4c-0.8-1.3-2-1.7-3.4-1c-0.6,0.3-1.1,0.7-1.6,1.1c-0.4-0.7-0.5-1.4-0.5-2.2c0-1.4,0.4-2.8,0.7-4.2
		c0.1-0.7,0.2-1.3,0.4-2.1c0.1,0,0.1,0,0.2,0c0-0.2,0-0.3,0.1-0.5c0,0,0,0,0,0c-0.1,0-0.3,0-0.4,0c-0.1,0-0.2,0-0.3,0
		c-0.1,0-0.3,0-0.4-0.1c-2-0.1-3.9,0.3-5.9,0.7c-0.9,0.2-1.8,0.2-2.7,0.3c-0.2,0-0.4,0-0.7-0.1c0.2-0.2,0.3-0.4,0.5-0.5
		c0.3-0.5,0.7-0.9,0.9-1.4c0.6-1.2,0.2-2.4-0.9-3.1c-1.5-1-3.2-1.2-4.9-0.7c-1.4,0.5-2,1.6-1.5,3c0.2,0.6,0.6,1.2,0.9,1.9
		c-0.6,0.3-1.3,0.5-2,0.4c-1.5-0.1-2.9-0.3-4.4-0.5c-0.3,0-0.7-0.1-1-0.2c-0.1,0-0.1,0-0.2,0c0,0,0,0,0,0c-0.2,0-0.4,0-0.7,0
		c0,0,0,0,0,0c-0.1,0-0.3,0-0.6-0.1c-2.3-0.5-4.7-1-7-1.4c-0.7-0.1-1.4-0.2-2.1-0.1c-0.9,0-1.1,0.5-0.7,1.3c0.4,0.8,0.9,1.7,1,2.6
		c0.3,1.6-0.6,2.6-2.1,2.9c-1,0.2-2,0-2.8-0.6c-1-0.7-1.4-1.8-0.9-2.9c0.2-0.6,0.6-1.1,1-1.8c-0.3-0.2-0.6-0.4-0.9-0.5
		c-1.4-0.4-2.9-0.3-4.3-0.1c-0.8,0.1-1.5,0.2-2.2,0.3c-0.1,0-0.3,0-0.4,0v0C18.8,16,18.7,16,18.5,16v41.3h46c0-0.2,0.1-0.5,0.3-0.7
		c0.2-0.7,0.4-1.3,0.5-2c0.1-1,0.2-1.9,0.2-2.9c0-0.3-0.2-0.7-0.5-0.9c-0.3-0.3-0.6-0.4-1-0.1c-0.5,0.3-1,0.6-1.5,0.8
		c-0.9,0.3-1.7,0-2.2-0.8c-0.8-1.4-0.8-2.9,0-4.4c0.6-1.1,1.7-1.5,3-1c0.6,0.2,1.2,0.6,1.7,0.9c0.2,0.1,0.3,0.2,0.5,0.3
		c0.5-1.4,0.5-2.8,0.3-4.2c-0.3-1.7-0.5-3.5-0.7-5.2c0-0.1-0.1-0.1-0.1-0.2c0-0.1-0.1-0.2-0.1-0.3c0,0,0-0.1,0-0.1
		c-0.1-0.2-0.2-0.5-0.2-0.7c-0.2-0.9-0.5-1.8-0.6-2.7c-0.2-0.9,0.1-1.7,0.4-2.5c0.4,0.3,0.8,0.6,1.3,0.8c2,1.1,3.5,0.4,4-1.7
		C70.1,28.2,69.9,26.7,69.1,25.4z M19,16.5c2.4-0.3,4.8-1,7.3-0.2c-0.2,0.3-0.4,0.6-0.5,0.9c-1.2,2.3-0.3,4.3,2.3,4.8
		c0.7,0.1,1.4,0.1,2.1-0.1c1.7-0.4,2.5-1.9,2.1-3.6c-0.2-0.9-0.7-1.7-1-2.5c-0.1-0.1-0.1-0.3-0.3-0.5c0.5,0,0.9-0.1,1.3,0
		c2,0.3,3.9,0.7,5.9,1.1c1,0.2,2,0.4,3,0.7c-0.2,0.9-0.4,1.8-0.6,2.7c-0.3,1.5-0.1,2.9,0.7,3.9c0.6-0.3,1.1-0.6,1.7-0.9
		c1.1-0.4,2.1-0.2,2.7,0.7c0.2,0.3,0.5,0.7,0.6,1.1c0.3,1,0.3,2,0,3c-0.4,1.2-1.4,1.7-2.6,1.3c-0.9-0.3-1.6-0.8-2.3-1.4
		c-0.2-0.1-0.3-0.3-0.5-0.4c-0.7,1.3-0.8,2.7-0.6,4.1c0.3,1.4,0.5,2.8,0.7,4.2c0.1,0.4,0.1,0.8,0.1,1.3c-0.6-0.1-1.1-0.2-1.6-0.2
		c-2-0.3-4-0.7-5.9-1c-0.7-0.1-1.5-0.1-2.2,0.2c-0.7,0.3-0.7,0.7-0.3,1.3c0.4,0.5,0.7,1,1,1.6c0.6,1.1,0.3,2.4-1,3
		c-1.4,0.6-2.8,0.7-4.1-0.1c-0.8-0.5-1.3-1.3-1-2.3c0.2-0.8,0.6-1.6,0.9-2.4c-2.5-1.3-5.2-0.5-7.9,0V16.5z M40.8,56.8
		c-7.1,0-14.2,0-21.2,0c-0.4,0-0.6-0.1-0.6-0.6c0-6.2,0-12.4,0-18.6c0-0.2,0-0.3,0-0.5c2.4-0.4,4.8-1.2,7.3-0.2
		c0,0.1-0.1,0.2-0.1,0.3c-0.2,0.5-0.5,1-0.6,1.6c-0.3,1.3,0.2,2.5,1.4,3c1.8,0.8,3.5,0.7,5.1-0.5c0.8-0.6,1-1.5,0.8-2.5
		c-0.2-0.9-0.7-1.7-1.3-2.3c-0.3-0.3-0.2-0.5,0.1-0.6c0.3-0.1,0.6-0.2,0.9-0.2c1.8,0.2,3.5,0.5,5.3,0.7c1,0.1,1.9,0.3,2.9,0.5
		c0.4,0,0.5,0.2,0.5,0.5c-0.1,1.9-0.2,3.8-0.4,5.7c-0.1,0.8-0.1,1.7-0.1,2.5c0,0.2,0.1,0.5,0.2,0.5c0.1,0.1,0.4-0.1,0.6-0.2
		c0.7-0.3,1.4-0.8,2.1-1c1.6-0.4,2.7,0.8,3,2.1c0.1,0.4,0.1,0.9,0.1,1.3c-0.1,2.3-1.7,3.5-3.9,2.9c-0.6-0.2-1.1-0.4-1.7-0.6
		c-0.7,1.2-0.9,2.5-0.4,3.9c0.2,0.6,0.4,1.1,0.5,1.7c0,0.1,0.1,0.3,0.1,0.5C41.1,56.8,40.9,56.8,40.8,56.8z M64.5,37.4
		c0.2,1.5,0.4,2.9,0.6,4.4c0.1,1,0.1,2,0.2,3c0,0.3-0.1,0.7-0.1,1.1c-0.2-0.1-0.3-0.2-0.5-0.3c-0.6-0.3-1.2-0.6-1.9-0.8
		c-1.5-0.3-2.6,0.3-3.3,1.7c-0.6,1.4-0.6,2.8,0,4.1c0.6,1.4,1.9,1.9,3.3,1.3c0.4-0.2,0.8-0.4,1.2-0.7c0.5-0.3,0.8-0.3,0.9,0.3
		c0.1,0.5,0.1,1.1,0.1,1.7c-0.2,1.1-0.5,2.1-0.7,3.2c-0.1,0.4-0.3,0.3-0.6,0.3c-3.9,0-7.8,0-11.7,0c-3.2,0-6.5,0-9.7,0
		c-0.4,0-0.5-0.1-0.6-0.5c-0.2-0.7-0.4-1.3-0.6-2c-0.3-1-0.3-2,0.2-3c0.4,0.1,0.7,0.3,1.1,0.4c3.3,1,4.9-1.4,4.7-3.9
		c0-0.4-0.1-0.8-0.2-1.1c-0.7-2-2.4-2.8-4.4-1.9c-0.5,0.2-0.9,0.5-1.5,0.8c0.2-2.9,0.4-5.6,0.6-8.5c0.1,0,0.2,0,0.4,0
		c1.1,0.1,2.1,0,3.2-0.4c0.9-0.3,1.8-0.2,2.8-0.3c0.4,0,0.8,0,1.3,0c-0.1,0.1-0.1,0.2-0.2,0.3c-0.3,0.6-0.7,1.1-0.9,1.7
		c-0.7,1.7-0.1,3.3,1.6,4c1.2,0.5,2.4,0.5,3.7,0.1c2-0.7,2.8-2.3,2.1-4.3c-0.2-0.7-0.6-1.3-1-2c0.9-0.6,1.9-0.6,2.9-0.4
		c1.2,0.3,2.4,0.7,3.7,0.9c0.9,0.2,1.9,0.3,2.8,0.4C64.3,37.1,64.4,37.1,64.5,37.4z M68.9,30.3c-0.5,1.1-1.3,1.4-2.4,0.9
		c-0.6-0.3-1.2-0.7-1.8-1c-0.2-0.1-0.3-0.3-0.5-0.4c-1.3,2.2-0.8,4.4,0,6.7c-0.7-0.1-1.3,0-1.8-0.2c-1.5-0.3-2.9-0.8-4.4-1.1
		c-1.4-0.3-2.7-0.3-4,0.6C54,35.9,54,36,53.9,36c0.4,0.6,0.7,1.2,1,1.9c0.4,1,0.6,2,0,3c-0.5,0.7-1.2,1-2,1.2
		c-1.1,0.2-2.2,0.1-3.2-0.4c-1.3-0.7-1.7-2-1.1-3.3c0.4-0.7,0.8-1.3,1.3-1.9c0.1-0.1,0.1-0.3,0.1-0.4c-0.1-0.1-0.3-0.2-0.4-0.2
		c-1.4,0.1-2.8,0.2-4.1,0.3c-0.3,0-0.7,0.2-1,0.3c-0.9,0.2-1.9,0.2-2.9,0.1c0-0.6-0.1-1.1-0.1-1.7c-0.2-1.3-0.5-2.7-0.7-4
		c-0.2-0.8-0.2-1.6,0.1-2.4c0.1-0.2,0.1-0.4,0.2-0.6c0.3,0.2,0.6,0.5,0.9,0.6c0.5,0.3,1.1,0.6,1.7,0.8c1.5,0.5,2.8-0.3,3.2-1.8
		c0.4-1.4,0.3-2.7-0.4-3.9c-0.7-1.5-2.2-2-3.8-1.3c-0.4,0.2-0.8,0.4-1.2,0.6c-0.5-0.8-0.7-1.6-0.5-2.5c0.2-1.2,0.5-2.3,0.7-3.5
		c0.8,0.1,1.5,0.3,2.3,0.3c1.4,0.1,2.7,0.3,4.1,0.3c0.9,0,1.7-0.3,2.3-0.7c-0.3-0.5-0.6-0.9-1-1.4c0,0,0-0.1-0.1-0.1
		c-0.9-1.7-0.3-2.9,1.6-3.2c1.3-0.2,2.5,0,3.6,0.7c1,0.6,1.4,1.7,0.8,2.7c-0.3,0.5-0.7,1-1.1,1.5c-0.1,0.2-0.3,0.5-0.2,0.7
		c0.1,0.2,0.4,0.4,0.6,0.4c1.2-0.1,2.4-0.1,3.5-0.3c1.8-0.3,3.5-0.7,5.4-0.6c0.1,0,0.3,0,0.5,0c-0.2,0.9-0.3,1.8-0.5,2.6
		c-0.3,1.4-0.6,2.7-0.5,4.2c0.1,0.9,0.4,1.7,1,2.7c0.1-0.2,0.1-0.3,0.2-0.4c0.4-0.3,0.7-0.7,1.2-1c1.5-1,2.7-0.6,3.4,1
		C69.5,27.5,69.6,28.9,68.9,30.3z"/>
</g>
</svg>
